<?xml version="1.0" encoding="UTF-8"?>
<svg width="24px" height="24px" viewBox="0 0 24 24" version="1.1" xmlns="http://www.w3.org/2000/svg" xmlns:xlink="http://www.w3.org/1999/xlink">
    <g stroke="none" stroke-width="1" fill="none" fill-rule="evenodd">
        <path d="M16,14 C18.2091,14 20,12.2091 20,10 C20,7.79086 18.2091,6 16,6 C15.8356,6 15.6737,6.01054 15.5149,6.03097 C14.8128,3.69924 12.6066,2 10,2 C6.96243,2 4.43842,4.27337 4.07089,7.22422 C2.30353,7.84253 1,9.58122 1,11.5714 C1,14.0157 3.01472,16 5.5,16 L16,16 L16,14 Z" fill="#FFFFFF" fill-rule="nonzero"></path>
        <path d="M8,16 L7.5,18 M12,16 L11.5,18 M16,16 L15.5,18 M9,20 L8.5,22 M13,20 L12.5,22 M17,20 L16.5,22" stroke="#4299E1" stroke-width="1.5" stroke-linecap="round"></path>
    </g>
</svg>
