<?xml version="1.0" encoding="UTF-8"?>
<svg width="24px" height="24px" viewBox="0 0 24 24" version="1.1" xmlns="http://www.w3.org/2000/svg" xmlns:xlink="http://www.w3.org/1999/xlink">
    <g stroke="none" stroke-width="1" fill="none" fill-rule="evenodd">
        <path d="M16,12 C18.2091,12 20,10.2091 20,8 C20,5.79086 18.2091,4 16,4 C15.8356,4 15.6737,4.01054 15.5149,4.03097 C14.8128,1.69924 12.6066,0 10,0 C6.96243,0 4.43842,2.27337 4.07089,5.22422 C2.30353,5.84253 1,7.58122 1,9.57143 C1,12.0157 3.01472,14 5.5,14 L16,14 L16,12 Z" fill="#FFFFFF" fill-rule="nonzero"></path>
        <path d="M8,17 L8,19 M7,18 L9,18 M12,15 L12,17 M11,16 L13,16 M16,17 L16,19 M15,18 L17,18 M10,20 L10,22 M9,21 L11,21 M14,20 L14,22 M13,21 L15,21" stroke="#A0AEC0" stroke-width="1.5" stroke-linecap="round"></path>
    </g>
</svg>
